<?xml version="1.0" encoding="UTF-8" standalone="no"?>
<!-- Created with Inkscape (http://www.inkscape.org/) -->

<svg
   width="62.464417mm"
   height="12.793019mm"
   viewBox="0 0 62.464416 12.793019"
   version="1.1"
   id="svg1"
   xmlns="http://www.w3.org/2000/svg"
   xmlns:svg="http://www.w3.org/2000/svg">
  <defs
     id="defs1" />
  <g
     id="layer1"
     transform="translate(-39.679192,-90.421122)">
    <path
       d="m 46.649309,97.980347 q 0.310059,0.0248 0.310059,0.297656 0,0.285254 -0.241846,0.285254 -0.05581,0 -0.06821,-0.03101 -0.0124,-0.02481 0,-0.06821 0.0124,-0.06201 0.0124,-0.07441 0,-0.130225 -0.285254,-0.117822 -1.723926,1.829345 -2.771924,2.716115 -2.052588,1.75493 -3.261816,1.75493 -0.285254,0 -0.471289,-0.17984 -0.192237,-0.17983 -0.192237,-0.46509 0,-0.63872 1.060401,-1.58129 0.95498,-0.855763 2.356445,-1.568898 1.432471,-0.725537 2.654102,-0.95498 0.868164,-0.868164 2.623095,-3.119189 1.947168,-2.48667 2.226221,-3.261817 0.124023,-0.353467 0.124023,-0.539502 0,-0.235644 -0.21084,-0.235644 -0.843359,0 -2.666503,0.731738 -1.841748,0.73794 -3.361036,2.040186 -1.53789,1.320849 -1.53789,2.27583 0,0.756543 0.79375,0.756543 1.097607,0 2.666504,-0.855762 1.463476,-0.799951 1.792138,-1.562695 0.03721,-0.08062 0.08062,-0.10542 0.148828,-0.0062 0.148828,0.241845 0,0.353467 -0.68833,0.992188 -0.657325,0.607715 -1.804541,1.122412 -1.209229,0.539502 -2.027783,0.539502 -0.607715,0 -1.023194,-0.427881 -0.409277,-0.434082 -0.409277,-1.047998 0,-1.178223 1.531689,-2.443262 1.314649,-1.085205 3.255615,-1.885156 1.835547,-0.750342 2.957959,-0.750342 0.942579,0 0.942579,0.744141 0,1.457275 -4.514454,6.777881 z m -1.203027,0.334863 q -1.147217,0.297656 -2.59209,1.128613 -1.463476,0.837157 -2.269629,1.674317 -0.682128,0.70073 -0.682128,1.0418 0,0.31626 0.390673,0.31626 0.31626,0 0.731739,-0.19844 0.58291,-0.28526 2.238623,-1.82315 1.227832,-1.141011 2.182812,-2.1394 z m 4.272608,-0.365869 q -1.655713,1.302246 -2.282031,1.302246 -0.07441,0 -0.07441,-0.08061 0,-0.111621 0.148828,-0.136426 0.58291,-0.09302 1.612304,-0.89917 l 0.799951,-0.626318 1.283643,-1.023194 q 0.880566,-0.607715 1.506885,-0.607715 0.465088,0 0.520898,0.465088 0.241846,-0.229443 0.334863,-0.229443 0.204639,0 0.204639,0.167432 0,0.217041 -0.95498,1.32705 -0.94878,1.11001 -0.94878,1.296045 0,0.130225 0.204639,0.136426 0.204639,0.0062 0.204639,0.10542 0,0.124023 -0.42168,0.124023 -0.415478,0 -0.415478,-0.365869 0,-0.291455 0.334863,-0.830957 l -0.768945,0.651123 q -0.564307,0.42168 -0.89917,0.42168 -0.533301,0 -0.533301,-0.539502 0,-0.297656 0.142627,-0.657324 z m 3.081982,-1.816943 q -0.365869,0 -1.513086,1.091406 -1.147217,1.091406 -1.147217,1.457275 0,0.167432 0.161231,0.167432 0.353467,0 1.513086,-1.066602 1.16582,-1.072803 1.16582,-1.444873 0,-0.204638 -0.179834,-0.204638 z m 2.207617,1.389062 -1.296045,1.016992 q -1.004589,0.713135 -1.531689,0.713135 -0.07441,0 -0.07441,-0.07441 0,-0.111621 0.148828,-0.142627 0.576709,-0.111621 1.562695,-0.861963 l 1.723926,-1.37666 q 1.413867,-1.159619 2.176611,-1.159619 0.403077,0 0.403077,0.310058 0.136425,0 0.136425,0.124024 0,0.10542 -0.155029,0.111621 -0.124023,0.440283 -0.465088,0.874365 -0.409277,0.520899 -0.787549,0.520899 -0.223242,0 -0.223242,-0.204639 0,-0.291455 0.483692,-0.756543 0.42788,-0.415479 0.768945,-0.558106 l 0.0124,-0.06821 q 0,-0.08682 -0.08682,-0.08682 -0.403076,0 -1.48208,1.11001 -1.072803,1.11001 -1.072803,1.550293 0,0.279053 0.235645,0.390674 0.117822,0.05581 0.440283,0.08682 0.235644,0.02481 0.235644,0.10542 0,0.124023 -0.434082,0.124023 -0.967382,0 -0.967382,-0.880566 0,-0.334863 0.248046,-0.868164 z m 2.765723,-1.190625 q -0.179834,0.08062 -0.508496,0.409277 -0.353467,0.347266 -0.353467,0.483692 l 0.04961,0.04961 q 0.167431,0 0.465087,-0.384473 0.254248,-0.328662 0.347266,-0.558105 z m 2.424658,0.05581 -1.661914,1.395263 -1.134814,0.89917 q -0.812354,0.570508 -1.333252,0.570508 -0.07441,0 -0.07441,-0.08061 0,-0.10542 0.124023,-0.136426 0.818555,-0.192236 2.213819,-1.358057 l 1.767334,-1.475879 q 0.607715,-0.508496 1.95957,-2.01538 l 1.736328,-1.984375 q 0.409277,-0.489893 0.576709,-0.489893 0.217041,0 0.217041,0.217041 0,0.272852 -0.533301,0.930176 l -0.768945,0.874365 -2.474268,2.852539 q 0.917774,-0.657324 1.345655,-0.657324 0.502295,0 0.502295,0.496094 0,0.558105 -0.979786,0.95498 -0.79375,0.322461 -1.48208,0.328662 0.223243,0.5271 0.576709,1.196826 0.117823,0.142627 0.384473,0.142627 0.08682,0 0.08682,0.09922 0,0.136426 -0.483691,0.136426 -0.235644,0 -0.403076,-0.124024 -0.155029,-0.10542 -0.682129,-1.221631 l -0.620117,0.744141 q -0.520899,0.607715 -0.620117,0.607715 -0.266651,0 -0.266651,-0.310059 0,-0.179834 0.973584,-1.358056 z m -0.186035,1.178222 q 0.930176,-0.117822 1.53169,-0.508496 0.601513,-0.390674 0.601513,-0.663525 0,-0.142627 -0.179834,-0.142627 -0.682129,0 -1.953369,1.314648 z m 12.948047,-2.771924 q 0.173633,0.0062 0.700732,0.136426 1.612305,0.403076 1.612305,1.513086 0,1.141016 -1.630908,2.139404 -1.624707,0.998389 -3.187403,0.998389 -0.799951,0 -1.296045,-0.310059 -0.589111,-0.37207 -0.589111,-1.128613 0,-0.285254 0.06821,-0.545703 l -0.762744,0.917773 q -0.620117,0.731739 -0.756543,0.731739 -0.111621,0 -0.229443,-0.08061 -0.111622,-0.08682 -0.111622,-0.198438 0,-0.341064 1.432471,-1.891357 1.593701,-1.730127 1.767334,-2.040186 l -0.10542,-0.26665 q 0,-0.291455 0.589111,-0.229444 l 3.001368,-3.119189 q -2.282032,0.260449 -3.43545,0.830957 -0.310058,0.155029 -0.421679,0.155029 -0.285254,0 -0.285254,-0.254248 0,-0.409277 1.53789,-0.855761 1.544092,-0.446485 3.274219,-0.539502 0.37207,-0.334864 0.520899,-0.334864 0.117822,0 0.173632,0.117823 0.05581,0.111621 0.02481,0.223242 2.846338,0 2.846338,1.64331 0,0.94878 -1.451074,1.556494 -0.626319,0.266651 -2.269629,0.638721 -0.334863,0.09302 -1.016992,0.192236 z m 1.351855,-3.447851 -2.939355,3.175 q 1.909961,-0.248047 3.435449,-0.68833 2.573486,-0.73794 2.573486,-1.680518 0,-0.818554 -2.22622,-0.818554 z m -3.367236,3.683496 q -2.102197,2.071191 -2.102197,3.050976 0,0.465088 0.496093,0.700733 0.378272,0.173633 0.905371,0.173633 1.568897,0 3.06958,-0.930176 1.500684,-0.936377 1.500684,-1.810742 0,-0.675928 -1.308447,-1.010791 -0.892969,-0.229444 -1.872754,-0.229444 -0.37207,0 -0.68833,0.05581 z m 5.370216,2.920752 q -1.655713,1.302246 -2.282031,1.302246 -0.07441,0 -0.07441,-0.08061 0,-0.111621 0.148828,-0.136426 0.58291,-0.09302 1.612305,-0.89917 l 0.799951,-0.626318 1.283643,-1.023194 q 0.880566,-0.607715 1.506884,-0.607715 0.465088,0 0.520899,0.465088 0.241845,-0.229443 0.334863,-0.229443 0.204639,0 0.204639,0.167432 0,0.217041 -0.954981,1.32705 -0.948779,1.11001 -0.948779,1.296045 0,0.130225 0.204639,0.136426 0.204638,0.0062 0.204638,0.10542 0,0.124023 -0.421679,0.124023 -0.415479,0 -0.415479,-0.365869 0,-0.291455 0.334863,-0.830957 l -0.768945,0.651123 q -0.564307,0.42168 -0.89917,0.42168 -0.533301,0 -0.533301,-0.539502 0,-0.297656 0.142627,-0.657324 z M 79.3977,96.132398 q -0.365869,0 -1.513086,1.091406 -1.147217,1.091406 -1.147217,1.457275 0,0.167432 0.16123,0.167432 0.353467,0 1.513086,-1.066602 1.165821,-1.072803 1.165821,-1.444873 0,-0.204638 -0.179834,-0.204638 z m 1.897558,1.630908 -1.172021,0.89917 q -0.868164,0.589111 -1.345654,0.589111 -0.07441,0 -0.07441,-0.07441 0,-0.111621 0.124023,-0.142627 0.47749,-0.117822 0.868164,-0.353467 0.589111,-0.347266 1.649512,-1.277441 1.066601,-0.930176 1.64331,-1.27124 0.409278,-0.241846 0.73794,-0.241846 0.551904,0 0.576709,0.458887 0.930175,-1.172022 2.108398,-2.505274 1.810742,-2.058789 2.164209,-2.058789 0.198437,0 0.198437,0.223242 0,0.186035 -0.502294,0.713135 -0.936377,0.973584 -2.790528,3.150195 -2.27583,2.672705 -2.27583,3.019971 0,0.142627 0.204639,0.148828 0.204639,0.0062 0.204639,0.10542 0,0.124023 -0.297657,0.124023 -0.489892,0 -0.489892,-0.403076 0,-0.322461 0.409277,-1.00459 -1.221631,1.302247 -1.736328,1.302247 -0.47749,0 -0.47749,-0.508497 0,-0.285253 0.272851,-0.892968 z m 0.378272,1.079004 q 0.353467,0 1.401465,-1.0542 1.047998,-1.0604 1.047998,-1.413867 0,-0.179834 -0.167432,-0.179834 -0.434082,0 -1.420068,1.029395 -0.985987,1.029394 -0.985987,1.488281 0,0.130225 0.124024,0.130225 z m 4.12998,-0.892969 q -1.655713,1.302246 -2.282031,1.302246 -0.07441,0 -0.07441,-0.08061 0,-0.111621 0.148828,-0.136426 0.58291,-0.09302 1.612305,-0.89917 l 0.799951,-0.626318 1.283642,-1.023194 q 0.880567,-0.607715 1.506885,-0.607715 0.465088,0 0.520899,0.465088 0.241845,-0.229443 0.334863,-0.229443 0.204639,0 0.204639,0.167432 0,0.217041 -0.954981,1.32705 -0.948779,1.11001 -0.948779,1.296045 0,0.130225 0.204639,0.136426 0.204638,0.0062 0.204638,0.10542 0,0.124023 -0.421679,0.124023 -0.415479,0 -0.415479,-0.365869 0,-0.291455 0.334863,-0.830957 l -0.768945,0.651123 q -0.564307,0.42168 -0.89917,0.42168 -0.533301,0 -0.533301,-0.539502 0,-0.297656 0.142627,-0.657324 z m 3.081983,-1.816943 q -0.365869,0 -1.513086,1.091406 -1.147217,1.091406 -1.147217,1.457275 0,0.167432 0.16123,0.167432 0.353467,0 1.513086,-1.066602 1.165821,-1.072803 1.165821,-1.444873 0,-0.204638 -0.179834,-0.204638 z m 3.416845,0.37207 -1.773535,1.451074 q -1.581299,1.296045 -2.263427,1.296045 -0.07442,0 -0.07442,-0.07441 0,-0.10542 0.167432,-0.142627 0.254248,-0.05581 0.558106,-0.198438 0.384472,-0.173632 1.736328,-1.252636 0.613916,-0.483692 1.798339,-1.519287 0.458887,-0.446485 0.620118,-0.446485 0.111621,0 0.229443,0.117823 0.124023,0.117822 0.124023,0.229443 0,0.148828 -0.923974,1.327051 -0.923975,1.178222 -0.923975,1.401464 0,0.179834 0.142627,0.179834 0.341065,0 1.53169,-1.438671 1.190625,-1.444873 1.364257,-1.444873 0.217041,0 0.217041,0.217041 0,0.142627 -0.68833,1.122412 -0.682129,0.973584 -0.682129,1.401464 0,0.217041 0.179834,0.217041 0.310059,0 1.364258,-1.196826 -0.136426,-0.124023 -0.136426,-0.353466 0,-0.465088 0.5271,-1.122413 0.551904,-0.682128 0.985986,-0.682128 0.148829,0 0.148829,0.179834 0,0.564306 -1.209229,1.996777 -1.227832,1.457275 -1.792139,1.457275 -0.520898,0 -0.520898,-0.539502 0,-0.378271 0.285254,-0.948779 -0.613916,0.694531 -0.806152,0.880566 -0.607715,0.589112 -0.961182,0.589112 -0.446484,0 -0.446484,-0.483692 0,-0.465088 0.465087,-1.184423 z m 2.90835,0.998388 q 0.998389,-1.141015 0.998389,-1.494482 0,-0.08682 -0.06821,-0.08682 -0.229444,0 -0.626319,0.564306 -0.396875,0.558106 -0.396875,0.837158 0,0.130225 0.09302,0.179834 z m 4.353223,1.556495 0.384472,-0.0124 q 0.08062,0 0.08062,0.09922 0,0.111621 -0.285249,0.136426 l -0.384473,0.0186 -1.730127,2.139403 q -1.556494,1.77354 -2.207617,1.77354 -0.310059,0 -0.310059,-0.41548 0,-0.92398 1.21543,-2.13941 1.221631,-1.209225 2.511475,-1.50068 l 1.28364,-1.655713 -1.01699,0.905372 q -0.930176,0.768945 -1.265039,0.768945 -0.390674,0 -0.390674,-0.551904 0,-0.477491 0.452686,-1.122413 l 0.756543,-0.95498 q -0.731739,0.651123 -1.680518,1.407666 -0.775146,0.613916 -1.047998,0.79375 -0.750342,0.502295 -1.21543,0.502295 -0.07441,0 -0.07441,-0.08061 0,-0.10542 0.124024,-0.136426 0.781347,-0.192236 2.158007,-1.32085 l 1.085206,-0.892968 0.700732,-0.620118 q 0.589111,-0.508496 0.663525,-0.508496 0.161231,0 0.303858,0.111621 0.148828,0.10542 0.148828,0.26045 l -0.979785,1.134814 q -0.979785,1.159619 -0.979785,1.544092 0,0.111621 0.124023,0.111621 0.37207,0 1.816943,-1.37666 1.060404,-1.010791 1.761134,-1.804541 0.14263,-0.161231 0.20464,-0.161231 0.11782,0 0.24184,0.08682 0.13023,0.08061 0.13023,0.192236 0,0.06201 -0.0806,0.148828 -1.14101,1.240235 -2.499069,3.11919 z m -0.942578,0.365869 q -1.246436,0.403076 -2.263428,1.46968 -1.010791,1.0728 -1.010791,1.76113 0,0.21084 0.148828,0.21084 0.595312,0 3.125391,-3.44165 z"
       id="text3"
       style="font-size:12.7px;font-family:'Vladimir Script';-inkscape-font-specification:'Vladimir Script';stroke-width:0.264583"
       aria-label="Jack Badawy" />
  </g>
</svg>
