<?xml version="1.0" encoding="UTF-8" standalone="no"?>
<!-- Created with Inkscape (http://www.inkscape.org/) -->

<svg
   width="62.464405mm"
   height="12.79302mm"
   viewBox="0 0 62.464405 12.79302"
   version="1.1"
   id="svg1"
   xmlns="http://www.w3.org/2000/svg"
   xmlns:svg="http://www.w3.org/2000/svg">
  <defs
     id="defs1" />
  <g
     id="layer1"
     transform="translate(-38.620858,-90.421118)"
     style="fill:#000000;fill-opacity:1;stroke:#000000;stroke-width:0.185208;stroke-dasharray:none;stroke-opacity:1">
    <path
       d="m 46.359797,98.015661 q 0.301445,0.02412 0.301445,0.289388 0,0.277329 -0.235127,0.277329 -0.05426,0 -0.06632,-0.03014 -0.01206,-0.02412 0,-0.06632 0.01206,-0.06029 0.01206,-0.07235 0,-0.126607 -0.277329,-0.114549 -1.676036,1.778531 -2.694922,2.640661 -1.995568,1.70618 -3.171204,1.70618 -0.27733,0 -0.458197,-0.17484 -0.186896,-0.17484 -0.186896,-0.45217 0,-0.62097 1.030943,-1.53737 0.928451,-0.831986 2.290984,-1.525311 1.392678,-0.705382 2.580372,-0.928451 0.844047,-0.844047 2.550228,-3.03254 1.893076,-2.417592 2.164377,-3.171205 0.120578,-0.343647 0.120578,-0.524515 0,-0.229098 -0.204983,-0.229098 -0.819931,0 -2.59243,0.711411 -1.790585,0.71744 -3.267667,1.98351 -1.495169,1.284157 -1.495169,2.212609 0,0.735526 0.7717,0.735526 1.067117,0 2.59243,-0.831989 1.422822,-0.777729 1.742354,-1.519284 0.03617,-0.07838 0.07838,-0.102492 0.144694,-0.006 0.144694,0.235128 0,0.343647 -0.669209,0.964625 -0.639064,0.590833 -1.754412,1.091232 -1.175636,0.524515 -1.971452,0.524515 -0.590833,0 -0.99477,-0.415995 -0.397907,-0.422023 -0.397907,-1.018885 0,-1.145492 1.489139,-2.375389 1.278129,-1.055059 3.165176,-1.832788 1.784557,-0.729497 2.875789,-0.729497 0.916393,0 0.916393,0.723468 0,1.416793 -4.389043,6.589595 z m -1.169608,0.325561 q -1.115348,0.289388 -2.520083,1.097261 -1.422822,0.813907 -2.20658,1.627807 -0.66318,0.68126 -0.66318,1.01285 0,0.30748 0.379821,0.30748 0.307475,0 0.711411,-0.19293 0.566718,-0.27733 2.176436,-1.7725 1.193723,-1.109314 2.122175,-2.079968 z m 4.153916,-0.355705 q -1.609718,1.26607 -2.218637,1.26607 -0.07235,0 -0.07235,-0.07838 0,-0.10852 0.144694,-0.132636 0.566717,-0.09043 1.567515,-0.874191 l 0.777729,-0.60892 1.247984,-0.994769 q 0.856105,-0.590833 1.465024,-0.590833 0.452168,0 0.506428,0.452168 0.235128,-0.22307 0.325561,-0.22307 0.198954,0 0.198954,0.162781 0,0.211011 -0.928451,1.290186 -0.922423,1.079174 -0.922423,1.260041 0,0.126607 0.198954,0.132636 0.198954,0.006 0.198954,0.102492 0,0.120578 -0.409966,0.120578 -0.403937,0 -0.403937,-0.355706 0,-0.283358 0.325561,-0.807873 l -0.747584,0.633035 q -0.54863,0.409966 -0.874191,0.409966 -0.518486,0 -0.518486,-0.524515 0,-0.289388 0.138664,-0.639064 z m 2.996367,-1.76647 q -0.355706,0 -1.471053,1.061088 -1.115348,1.061087 -1.115348,1.416793 0,0.16278 0.156752,0.16278 0.343647,0 1.471053,-1.036972 1.133434,-1.043001 1.133434,-1.404735 0,-0.198954 -0.174838,-0.198954 z m 2.146291,1.350475 -1.260041,0.988741 q -0.976683,0.693324 -1.48914,0.693324 -0.07235,0 -0.07235,-0.07235 0,-0.10852 0.144694,-0.138665 0.560688,-0.10852 1.519284,-0.838018 l 1.676036,-1.338417 q 1.374591,-1.127406 2.116146,-1.127406 0.391879,0 0.391879,0.301446 0.132636,0 0.132636,0.120578 0,0.102491 -0.150723,0.10852 -0.120578,0.428053 -0.452167,0.850076 -0.397908,0.506428 -0.765672,0.506428 -0.21704,0 -0.21704,-0.198954 0,-0.283358 0.470254,-0.735526 0.415995,-0.403937 0.747585,-0.542602 l 0.01206,-0.06632 q 0,-0.08441 -0.0844,-0.08441 -0.391879,0 -1.440909,1.079175 -1.043,1.079174 -1.043,1.507226 0,0.271301 0.229098,0.379821 0.114549,0.05426 0.428052,0.08441 0.229099,0.02412 0.229099,0.102492 0,0.120578 -0.422024,0.120578 -0.940509,0 -0.940509,-0.856105 0,-0.325561 0.241156,-0.844047 z m 2.688892,-1.15755 q -0.174838,0.07838 -0.49437,0.397908 -0.343648,0.337619 -0.343648,0.470255 l 0.04823,0.04823 q 0.16278,0 0.452168,-0.373792 0.247185,-0.319532 0.337618,-0.542602 z m 2.357303,0.05426 -1.615747,1.356504 -1.10329,0.874192 q -0.789786,0.554659 -1.296214,0.554659 -0.07235,0 -0.07235,-0.07838 0,-0.102491 0.120578,-0.132636 0.795815,-0.186896 2.152319,-1.32033 l 1.718239,-1.43488 q 0.590833,-0.49437 1.905134,-1.959395 l 1.688094,-1.92925 q 0.397908,-0.476283 0.560688,-0.476283 0.211012,0 0.211012,0.211011 0,0.265272 -0.518486,0.904336 l -0.747584,0.850076 -2.405534,2.773297 q 0.892278,-0.639064 1.308273,-0.639064 0.488341,0 0.488341,0.482313 0,0.542601 -0.952567,0.928451 -0.7717,0.313503 -1.440909,0.319532 0.217041,0.512457 0.560688,1.163579 0.11455,0.138665 0.373793,0.138665 0.0844,0 0.0844,0.09646 0,0.132635 -0.470254,0.132635 -0.229099,0 -0.391879,-0.120578 -0.150723,-0.102491 -0.66318,-1.187694 l -0.602891,0.723469 q -0.506428,0.590832 -0.60289,0.590832 -0.259243,0 -0.259243,-0.301445 0,-0.174838 0.946538,-1.32033 z m -0.180867,1.145492 q 0.904336,-0.114549 1.48914,-0.49437 0.584804,-0.379821 0.584804,-0.645093 0,-0.138665 -0.174838,-0.138665 -0.66318,0 -1.899106,1.278128 z m 12.588355,-2.694921 q 0.16881,0.006 0.681267,0.132636 1.567515,0.391879 1.567515,1.471053 0,1.109319 -1.585602,2.079973 -1.579573,0.970654 -3.098858,0.970654 -0.777729,0 -1.260041,-0.301445 -0.572746,-0.361735 -0.572746,-1.097261 0,-0.27733 0.06632,-0.530544 l -0.741556,0.892278 q -0.602891,0.711411 -0.735527,0.711411 -0.10852,0 -0.223069,-0.07838 -0.10852,-0.0844 -0.10852,-0.192925 0,-0.33159 1.392677,-1.838816 1.549429,-1.682065 1.718238,-1.98351 l -0.102491,-0.259243 q 0,-0.283359 0.572746,-0.22307 l 2.917991,-3.03254 q -2.218638,0.253214 -3.340014,0.807874 -0.301446,0.150722 -0.409966,0.150722 -0.27733,0 -0.27733,-0.247185 0,-0.397908 1.495169,-0.831989 1.501198,-0.434081 3.183263,-0.524515 0.361734,-0.325561 0.506428,-0.325561 0.114549,0 0.168809,0.114549 0.05426,0.108521 0.02412,0.217041 2.767268,0 2.767268,1.59766 0,0.922423 -1.410764,1.513256 -0.60892,0.259243 -2.20658,0.620977 -0.325561,0.09043 -0.988741,0.186896 z m 1.314302,-3.352072 -2.857702,3.0868 q 1.856904,-0.241156 3.340014,-0.669208 2.501997,-0.71744 2.501997,-1.633834 0,-0.795816 -2.164378,-0.795816 z m -3.273696,3.581171 q -2.0438,2.013654 -2.0438,2.966222 0,0.452168 0.482313,0.681266 0.367763,0.168809 0.88022,0.168809 1.525314,0 2.984309,-0.904336 1.458995,-0.910364 1.458995,-1.76044 0,-0.657151 -1.272099,-0.982712 -0.868162,-0.22307 -1.82073,-0.22307 -0.361734,0 -0.669208,0.05426 z m 5.221032,2.839615 q -1.609718,1.26607 -2.218637,1.26607 -0.07235,0 -0.07235,-0.07838 0,-0.10852 0.144694,-0.132636 0.566717,-0.09043 1.567515,-0.874191 l 0.777729,-0.60892 1.247984,-0.994769 q 0.856105,-0.590833 1.465024,-0.590833 0.452168,0 0.506428,0.452168 0.235128,-0.22307 0.325561,-0.22307 0.198954,0 0.198954,0.162781 0,0.211011 -0.928452,1.290186 -0.922422,1.079174 -0.922422,1.260041 0,0.126607 0.198954,0.132636 0.198954,0.006 0.198954,0.102492 0,0.120578 -0.409966,0.120578 -0.403937,0 -0.403937,-0.355706 0,-0.283358 0.325561,-0.807873 l -0.747584,0.633035 q -0.548631,0.409966 -0.874192,0.409966 -0.518486,0 -0.518486,-0.524515 0,-0.289388 0.138665,-0.639064 z m 2.996367,-1.76647 q -0.355706,0 -1.471053,1.061088 -1.115348,1.061087 -1.115348,1.416793 0,0.16278 0.156751,0.16278 0.343648,0 1.471054,-1.036972 1.133434,-1.043001 1.133434,-1.404735 0,-0.198954 -0.174838,-0.198954 z m 1.844846,1.585602 -1.139464,0.874192 q -0.844047,0.572746 -1.308272,0.572746 -0.07235,0 -0.07235,-0.07235 0,-0.10852 0.120578,-0.138665 0.464226,-0.114549 0.844047,-0.343647 0.572746,-0.337619 1.603689,-1.241955 1.036972,-0.904336 1.59766,-1.235926 0.397908,-0.235127 0.71744,-0.235127 0.536573,0 0.560688,0.446139 0.904336,-1.139464 2.049828,-2.435679 1.760441,-2.001596 2.104089,-2.001596 0.192925,0 0.192925,0.21704 0,0.180867 -0.488342,0.693324 -0.910364,0.946539 -2.713007,3.062685 -2.212609,2.598459 -2.212609,2.936077 0,0.138665 0.198954,0.144694 0.198954,0.006 0.198954,0.102492 0,0.120578 -0.289388,0.120578 -0.476283,0 -0.476283,-0.391879 0,-0.313503 0.397907,-0.976683 -1.187694,1.26607 -1.688093,1.26607 -0.464226,0 -0.464226,-0.49437 0,-0.27733 0.265272,-0.868163 z m 0.367763,1.04903 q 0.343648,0 1.362533,-1.024914 1.018885,-1.030943 1.018885,-1.374591 0,-0.174838 -0.16278,-0.174838 -0.422024,0 -1.38062,1.000799 -0.958596,1.000798 -0.958596,1.446937 0,0.126607 0.120578,0.126607 z m 4.015252,-0.868162 q -1.609718,1.26607 -2.218637,1.26607 -0.07235,0 -0.07235,-0.07838 0,-0.10852 0.144693,-0.132636 0.566718,-0.09043 1.567516,-0.874191 l 0.777729,-0.60892 1.247984,-0.994769 q 0.856104,-0.590833 1.465024,-0.590833 0.452168,0 0.506428,0.452168 0.235127,-0.22307 0.325561,-0.22307 0.198954,0 0.198954,0.162781 0,0.211011 -0.928452,1.290186 -0.922422,1.079174 -0.922422,1.260041 0,0.126607 0.198954,0.132636 0.198954,0.006 0.198954,0.102492 0,0.120578 -0.409966,0.120578 -0.403937,0 -0.403937,-0.355706 0,-0.283358 0.325561,-0.807873 l -0.747584,0.633035 q -0.548631,0.409966 -0.874192,0.409966 -0.518486,0 -0.518486,-0.524515 0,-0.289388 0.138665,-0.639064 z m 2.996367,-1.76647 q -0.355706,0 -1.471053,1.061088 -1.115348,1.061087 -1.115348,1.416793 0,0.16278 0.156751,0.16278 0.343648,0 1.471054,-1.036972 1.133434,-1.043001 1.133434,-1.404735 0,-0.198954 -0.174838,-0.198954 z m 3.321928,0.361734 -1.724268,1.410764 q -1.537371,1.260042 -2.20055,1.260042 -0.07235,0 -0.07235,-0.07235 0,-0.102491 0.16278,-0.138665 0.247185,-0.05426 0.542602,-0.192925 0.373792,-0.168809 1.688094,-1.217839 0.596861,-0.470255 1.748382,-1.477082 0.446139,-0.434081 0.602891,-0.434081 0.10852,0 0.22307,0.114549 0.120578,0.114549 0.120578,0.223069 0,0.144694 -0.898307,1.290186 -0.898307,1.145493 -0.898307,1.362533 0,0.174839 0.138664,0.174839 0.33159,0 1.48914,-1.398707 1.15755,-1.404735 1.32636,-1.404735 0.211011,0 0.211011,0.211012 0,0.138665 -0.669208,1.091232 -0.66318,0.946538 -0.66318,1.362533 0,0.211011 0.174838,0.211011 0.301446,0 1.32636,-1.163578 -0.132636,-0.120579 -0.132636,-0.343648 0,-0.452168 0.512457,-1.091232 0.536573,-0.66318 0.958596,-0.66318 0.144694,0 0.144694,0.174838 0,0.548631 -1.175637,1.941308 -1.193723,1.416793 -1.742354,1.416793 -0.506428,0 -0.506428,-0.524515 0,-0.367763 0.27733,-0.922422 -0.596862,0.675237 -0.783758,0.856104 -0.590833,0.572747 -0.934481,0.572747 -0.434081,0 -0.434081,-0.470255 0,-0.452168 0.452168,-1.151521 z m 2.827557,0.970654 q 0.970654,-1.109318 0.970654,-1.452966 0,-0.0844 -0.06632,-0.0844 -0.22307,0 -0.60892,0.548631 -0.38585,0.542601 -0.38585,0.813902 0,0.126607 0.09043,0.174838 z m 4.232291,1.513256 0.373792,-0.01206 q 0.07838,0 0.07838,0.09646 0,0.10852 -0.27733,0.132635 l -0.373792,0.01809 -1.682065,2.079974 q -1.513255,1.72427 -2.146291,1.72427 -0.301445,0 -0.301445,-0.40394 0,-0.89831 1.181666,-2.07997 1.187694,-1.17564 2.441707,-1.458999 l 1.247983,-1.609718 -0.98874,0.880221 q -0.904336,0.747584 -1.229897,0.747584 -0.379821,0 -0.379821,-0.536573 0,-0.464225 0.44011,-1.091232 l 0.735527,-0.928451 q -0.711411,0.633035 -1.633834,1.368561 -0.753613,0.596862 -1.018885,0.7717 -0.729498,0.488342 -1.181666,0.488342 -0.07235,0 -0.07235,-0.07838 0,-0.102491 0.120578,-0.132636 0.759643,-0.186896 2.09806,-1.284157 L 96.2912,96.88825 96.972467,96.285359 q 0.572746,-0.49437 0.645093,-0.49437 0.156751,0 0.295416,0.10852 0.144694,0.102491 0.144694,0.253214 l -0.952567,1.10329 q -0.952567,1.127405 -0.952567,1.501198 0,0.10852 0.120578,0.10852 0.361734,0 1.766469,-1.338417 1.030943,-0.982712 1.71221,-1.754412 0.138665,-0.156752 0.198954,-0.156752 0.114543,0 0.235123,0.0844 0.12661,0.07838 0.12661,0.186896 0,0.06029 -0.0784,0.144694 -1.109314,1.205781 -2.429644,3.03254 z m -0.916394,0.355705 q -1.21181,0.391879 -2.200551,1.428854 -0.982711,1.043 -0.982711,1.71221 0,0.20498 0.144693,0.20498 0.578775,0 3.038569,-3.346044 z"
       id="text3"
       style="font-size:12.3472px;font-family:'Vladimir Script';-inkscape-font-specification:'Vladimir Script, Normal';fill:#000000;fill-opacity:1;stroke:#000000;stroke-width:0.185208;stroke-linecap:round;stroke-linejoin:round;stroke-miterlimit:5;stroke-dasharray:none;stroke-opacity:1"
       aria-label="Jack Badawy" />
  </g>
</svg>
